<svg width="126" height="28" fill="none" xmlns="http://www.w3.org/2000/svg"><path fill-rule="evenodd" clip-rule="evenodd" d="m3.887 10.508 1.71 1.711a1.28 1.28 0 0 1 0 1.804l-1.71 1.711a1.28 1.28 0 0 1-1.804 0l-1.71-1.71a1.28 1.28 0 0 1 0-1.805l1.71-1.71a1.28 1.28 0 0 1 1.804 0ZM3.887 20.45l1.71 1.711a1.28 1.28 0 0 1 0 1.804l-1.71 1.71a1.28 1.28 0 0 1-1.804 0l-1.71-1.71a1.28 1.28 0 0 1 0-1.804l1.71-1.71a1.278 1.278 0 0 1 1.804 0Z" fill="#06A39C"/><path fill-rule="evenodd" clip-rule="evenodd" d="m13.827.567 1.711 1.71a1.28 1.28 0 0 1 0 1.805l-1.71 1.71a1.28 1.28 0 0 1-1.805 0l-1.71-1.71a1.28 1.28 0 0 1 0-1.804l1.71-1.711a1.28 1.28 0 0 1 1.804 0ZM13.827 10.508l1.711 1.711a1.28 1.28 0 0 1 0 1.804l-1.71 1.711a1.28 1.28 0 0 1-1.805 0l-1.71-1.71a1.28 1.28 0 0 1 0-1.805l1.71-1.71a1.28 1.28 0 0 1 1.804 0Z" fill="#30D2A3"/><path fill-rule="evenodd" clip-rule="evenodd" d="m13.827 20.45 1.711 1.711a1.28 1.28 0 0 1 0 1.804l-1.71 1.71a1.28 1.28 0 0 1-1.805 0l-1.71-1.71a1.28 1.28 0 0 1 0-1.804l1.71-1.71a1.278 1.278 0 0 1 1.804 0Z" fill="#06A39C"/><path fill-rule="evenodd" clip-rule="evenodd" d="m23.77.567 1.71 1.71a1.28 1.28 0 0 1 0 1.805l-1.71 1.71a1.28 1.28 0 0 1-1.805 0l-1.71-1.71a1.28 1.28 0 0 1 0-1.804l1.71-1.711a1.28 1.28 0 0 1 1.804 0ZM23.77 10.508l1.71 1.711a1.28 1.28 0 0 1 0 1.804l-1.71 1.711a1.28 1.28 0 0 1-1.805 0l-1.71-1.71a1.28 1.28 0 0 1 0-1.805l1.71-1.71a1.28 1.28 0 0 1 1.804 0Z" fill="#30D2A3"/><path fill-rule="evenodd" clip-rule="evenodd" d="m23.77 20.45 1.71 1.711a1.28 1.28 0 0 1 0 1.804l-1.71 1.71a1.28 1.28 0 0 1-1.805 0l-1.71-1.71a1.28 1.28 0 0 1 0-1.804l1.71-1.71a1.277 1.277 0 0 1 1.804 0Z" fill="#06A39C"/><path fill-rule="evenodd" clip-rule="evenodd" d="m3.887.567 1.71 1.71a1.28 1.28 0 0 1 0 1.805l-1.71 1.71a1.28 1.28 0 0 1-1.804 0l-1.71-1.71a1.28 1.28 0 0 1 0-1.804L2.082.567a1.28 1.28 0 0 1 1.804 0Z" fill="#30D2A3"/><path fill-rule="evenodd" clip-rule="evenodd" d="m40.754 15.216.585 1.473c.07.187.21.257.397.187l1.66-.538c.258-.07.281-.28.21-.468l-.303-.982c-.257-.842-.303-1.708-.303-2.643v-4.07c0-3.158-2.503-4.397-5.263-4.397-2.339 0-3.928.632-5.495 1.777-.164.117-.21.35-.047.539l.912 1.286c.117.163.374.186.562.07 1.31-.819 2.362-1.123 4.07-1.123 1.403 0 2.549.445 2.549 1.544v.28l-4.117.539c-2.876.374-4.584 1.87-4.584 4.233 0 2.386 1.871 3.977 4.56 3.977 1.872 0 3.346-.585 4.491-1.684h.116Zm-.468-2.643c-.819 1.099-2.081 1.777-3.859 1.777-1.474 0-2.128-.608-2.128-1.567 0-.819.585-1.45 1.871-1.66l4.117-.679v2.129h-.001ZM46.32.248c-.21 0-.327.116-.327.327v15.81c0 .21.117.327.327.327h1.59c.187 0 .304-.094.35-.28l.188-.843.163-.023c.959.935 2.34 1.334 3.765 1.334 3.742 0 6.573-2.643 6.573-6.572 0-3.928-2.76-6.548-6.573-6.548-1.404 0-2.572.35-3.671 1.263V.576c0-.21-.117-.327-.327-.327L46.32.248Zm2.386 7.624c1.005-1.029 2.01-1.52 3.671-1.52 2.223 0 3.882 1.544 3.882 3.976 0 2.456-1.66 4-3.882 4-1.567 0-2.666-.492-3.671-1.59V7.872Zm12.442-3.906c-.21 0-.327.117-.327.327v7.016c0 3.882 2.128 5.59 5.309 5.59 1.404 0 2.69-.398 3.788-1.404h.14l.21.935c.047.187.164.28.374.28h1.661c.21 0 .327-.116.327-.326V4.294c0-.21-.117-.327-.327-.327h-2.058c-.21 0-.327.117-.327.327v8.397c-.842 1.099-2.199 1.637-3.508 1.637-1.964 0-2.876-.959-2.876-3.181V4.294c0-.21-.117-.327-.327-.327h-2.06v-.001Zm15.272.047-1.52.14c-.188.023-.281.14-.281.303v1.708c0 .21.117.327.327.327h1.45v6.127c0 2.503 1.216 4.28 4.023 4.28 1.193 0 2.082-.256 2.947-.818.21-.117.257-.257.163-.468l-.631-1.498c-.07-.163-.21-.256-.469-.14-.491.257-1.052.374-1.684.374-1.005 0-1.637-.608-1.637-1.8V6.49h3.462c.21 0 .327-.117.327-.327V4.292c0-.21-.117-.327-.328-.327h-3.461v-2.48a.319.319 0 0 0-.327-.326h-1.776c-.187 0-.304.116-.327.327l-.258 2.527Zm19.553 9.028c-.117-.14-.257-.14-.374-.023-1.216 1.005-2.48 1.333-4.07 1.333-2.058 0-3.508-1.122-3.953-2.736h10.01c.186 0 .28-.117.28-.327v-.935c0-3.812-2.666-6.573-6.455-6.573-3.812 0-6.666 2.76-6.666 6.573 0 3.765 2.783 6.548 6.783 6.548 1.87 0 3.858-.538 5.542-1.964.117-.117.14-.257.024-.374l-1.121-1.522ZM91.41 6.328c1.848 0 3.508 1.123 3.695 2.76h-7.555c.375-1.614 1.966-2.76 3.86-2.76Zm14.921-2.549c-3.741 0-6.595 2.76-6.595 6.525 0 3.765 2.853 6.596 6.595 6.596 2.34 0 4.374-1.03 5.566-2.993.094-.117.07-.257-.046-.374l-1.474-1.17c-.14-.116-.257-.116-.374 0-.959 1.405-2.081 1.965-3.672 1.965-2.315 0-3.881-1.707-3.881-4.023s1.543-3.953 3.881-3.953c1.591 0 2.643.585 3.602 1.894.094.117.28.21.444.047l1.474-1.123c.116-.093.14-.21.046-.373-1.121-1.919-3.366-3.018-5.566-3.018Zm8.187-3.531c-.21 0-.327.116-.327.327v15.81c0 .21.117.327.327.327h2.058c.21 0 .327-.117.327-.327v-8.56c.935-1.028 2.034-1.473 3.414-1.473 1.871 0 2.97 1.075 2.97 3.321v6.713c0 .21.117.327.327.327h2.058c.21 0 .327-.117.327-.327V9.58c0-3.835-2.386-5.8-5.683-5.8-1.31 0-2.456.373-3.414 1.285V.575c0-.21-.117-.327-.327-.327h-2.057ZM33.556 25.487c.357 0 .648-.13.873-.386.236-.257.354-.593.354-1.007 0-.404-.118-.737-.354-.999a1.114 1.114 0 0 0-.873-.393c-.346 0-.637.13-.873.393s-.353.596-.353 1c0 .409.117.741.353.998.236.264.527.394.873.394Zm-.118.662c-.503 0-.936-.2-1.298-.599-.357-.404-.535-.889-.535-1.456 0-.566.178-1.052.535-1.456.362-.398.795-.598 1.298-.598.284 0 .542.06.776.181.233.12.412.28.54.48h.03l-.03-.535v-1.779h.723v5.634h-.692v-.535h-.03c-.126.199-.307.359-.54.48a1.651 1.651 0 0 1-.777.183Zm3.856-5.312c0 .142-.05.263-.15.362-.1.1-.22.149-.36.149a.494.494 0 0 1-.362-.15.491.491 0 0 1-.15-.36c0-.142.05-.263.15-.362.1-.1.22-.15.361-.15s.263.051.362.15c.099.099.149.22.149.361Zm-.15 1.33v3.855h-.724v-3.855h.725Zm2.636 3.32c.357 0 .647-.13.873-.386.236-.257.354-.593.354-1.007 0-.404-.118-.737-.354-.999a1.114 1.114 0 0 0-.873-.393c-.346 0-.638.13-.873.393-.236.263-.354.596-.354 1 0 .409.118.741.354.998.235.264.527.394.873.394Zm-.024 2.361c-.214 0-.417-.028-.606-.082a1.953 1.953 0 0 1-.515-.232 1.69 1.69 0 0 1-.397-.354 1.496 1.496 0 0 1-.251-.456l.684-.284c.079.226.214.406.409.543.194.137.42.204.676.204.394 0 .701-.117.921-.353.22-.236.33-.562.33-.976v-.369h-.03a1.425 1.425 0 0 1-.556.484 1.66 1.66 0 0 1-.76.177c-.503 0-.936-.197-1.297-.59-.357-.405-.535-.893-.535-1.465 0-.571.178-1.056.535-1.456.361-.398.794-.598 1.298-.598.272 0 .526.059.76.177.233.118.418.279.554.484h.032v-.535h.691v3.69c0 .619-.175 1.105-.527 1.456-.356.356-.828.535-1.416.535Zm3.76-7.01c0 .14-.05.262-.148.36-.1.101-.22.15-.362.15a.494.494 0 0 1-.361-.15c-.1-.1-.15-.22-.15-.36 0-.142.05-.263.15-.362.1-.1.22-.15.361-.15.142 0 .263.051.362.15.099.099.149.22.149.361Zm-.148 1.329v3.855h-.724v-3.855h.724Zm2.431 3.918c-.314 0-.576-.097-.783-.291-.207-.194-.313-.464-.318-.811v-2.156h-.676v-.66h.676v-1.18h.724v1.18h.945v.66h-.945v1.92c0 .257.05.432.15.523.1.092.212.138.337.138a.856.856 0 0 0 .322-.071l.23.645c-.19.069-.41.103-.662.103Zm1.708-1.243c0 .189.08.346.24.471.16.126.347.19.563.19.305 0 .576-.113.814-.339.24-.226.358-.49.358-.794-.226-.178-.54-.267-.944-.267-.294 0-.54.071-.735.213-.198.14-.296.317-.296.526Zm.935-2.801c.535 0 .958.142 1.267.43.31.285.464.678.464 1.175v2.376h-.692v-.535h-.031c-.3.44-.698.66-1.196.66-.425 0-.78-.125-1.065-.378a1.206 1.206 0 0 1-.43-.944c0-.398.151-.716.453-.952.301-.236.704-.354 1.208-.354.43 0 .784.08 1.062.236v-.166c0-.251-.1-.466-.3-.641a1.025 1.025 0 0 0-.7-.264c-.404 0-.724.17-.96.511l-.637-.401c.351-.5.87-.753 1.557-.753Zm3.274-1.652v5.634h-.724v-5.634h.724Zm4.374 5.76c-.571 0-1.046-.194-1.423-.582-.373-.398-.559-.889-.559-1.472 0-.592.186-1.083.559-1.471.378-.388.852-.582 1.423-.582.394 0 .738.098 1.031.295.294.197.514.468.661.814l-.66.276c-.205-.483-.565-.724-1.078-.724-.33 0-.617.133-.858.401-.236.267-.354.599-.354.991 0 .394.118.725.354.991.241.267.527.402.858.402.529 0 .902-.241 1.116-.724l.645.276a1.728 1.728 0 0 1-.665.814 1.886 1.886 0 0 1-1.05.295Zm2.085-2.055c0-.593.186-1.083.558-1.471.378-.389.852-.582 1.424-.582s1.043.194 1.416.582c.378.388.566.878.566 1.471 0 .599-.19 1.09-.566 1.472-.373.388-.845.582-1.416.582-.572 0-1.047-.194-1.424-.582-.371-.388-.558-.879-.558-1.472Zm.724 0c0 .415.12.75.361 1.007.242.257.54.386.897.386s.655-.13.896-.386c.242-.257.362-.593.362-1.007 0-.41-.12-.742-.362-.999a1.185 1.185 0 0 0-.896-.393c-.352 0-.65.13-.897.393-.24.257-.361.591-.361 1Zm4.548 1.929h-.724v-3.855h.692v.535h.03c.111-.19.28-.346.508-.472.228-.126.455-.189.68-.189.284 0 .534.066.748.197.215.131.373.313.472.543.32-.493.763-.74 1.33-.74.445 0 .789.137 1.03.41.242.272.362.66.362 1.164v2.408h-.724v-2.297c0-.361-.066-.623-.197-.783-.132-.16-.352-.24-.661-.24-.278 0-.512.118-.7.354a1.294 1.294 0 0 0-.284.834v2.132h-.725v-2.297c0-.361-.065-.623-.196-.783-.132-.16-.352-.24-.661-.24-.278 0-.512.118-.7.354-.19.235-.284.514-.284.834v2.131h.004Zm7.867-.536c.346 0 .638-.131.873-.394.236-.257.354-.59.354-.999 0-.404-.118-.737-.354-.999a1.128 1.128 0 0 0-.873-.393c-.351 0-.645.13-.88.393-.232.263-.347.596-.347 1 0 .409.116.745.346 1.006.236.258.53.386.881.386Zm.12.662c-.284 0-.542-.06-.776-.182a1.359 1.359 0 0 1-.54-.479h-.03l.03.535v1.7h-.724v-5.555h.692v.535h.031c.126-.2.306-.36.54-.48.234-.12.492-.18.775-.18.508 0 .939.198 1.29.598.362.403.543.888.543 1.456 0 .571-.181 1.056-.543 1.455-.35.396-.78.597-1.289.597Zm3.02-1.307c0 .189.08.346.24.471.16.126.347.19.563.19.305 0 .576-.113.814-.339.24-.226.359-.49.359-.794-.226-.178-.54-.267-.945-.267-.293 0-.54.071-.735.213-.198.14-.296.317-.296.526Zm.937-2.801c.535 0 .957.142 1.267.43.309.285.463.678.463 1.175v2.376h-.691v-.535h-.032c-.299.44-.697.66-1.195.66-.425 0-.78-.125-1.066-.378a1.206 1.206 0 0 1-.43-.944c0-.398.152-.716.454-.952.301-.236.704-.354 1.208-.354.43 0 .784.08 1.062.236v-.166c0-.251-.1-.466-.3-.641a1.025 1.025 0 0 0-.7-.264c-.404 0-.724.17-.96.511l-.637-.401c.35-.5.87-.753 1.557-.753Zm2.548.126h.692v.535h.031c.11-.19.28-.346.507-.472.228-.126.465-.19.712-.19.472 0 .835.136 1.09.406.255.27.382.654.382 1.152v2.424h-.724v-2.376c-.016-.63-.333-.944-.953-.944a.906.906 0 0 0-.724.35 1.271 1.271 0 0 0-.291.838v2.132h-.724v-3.855h.002Zm7.633 0-2.416 5.554h-.748l.897-1.943-1.59-3.611h.787l1.149 2.77h.015l1.117-2.77h.789Z" fill="#00094A"/></svg>