<svg width="20" height="20" fill="none" xmlns="http://www.w3.org/2000/svg"><path fill-rule="evenodd" clip-rule="evenodd" d="M14.5 16.667c-6.157 0-11.167-5.01-11.167-11.167a2.169 2.169 0 0 1 2.44-2.15l.884 3.852-.341.178-.108.056c-.718.375-1.285.672-.987 1.326.98 2.788 3.23 5.038 5.984 6.005.702.281.974-.24 1.351-.96l.005-.01a60.161 60.161 0 0 1 .238-.454l3.85.884a2.169 2.169 0 0 1-2.148 2.44Zm3.626-3.41a.833.833 0 0 0-.6-.539l-4.97-1.14a.834.834 0 0 0-.764.21c-.12.114-.122.117-.663 1.151A8.29 8.29 0 0 1 7.063 8.87c1.032-.54 1.035-.543 1.149-.662a.833.833 0 0 0 .21-.763l-1.14-4.97a.835.835 0 0 0-.54-.602 3.647 3.647 0 0 0-.604-.152A3.837 3.837 0 0 0 1.666 5.5c0 7.076 5.757 12.832 12.834 12.832a3.838 3.838 0 0 0 3.626-5.076Zm-7.293-6.59c1.378 0 2.5 1.121 2.5 2.5a.833.833 0 1 0 1.667 0A4.171 4.171 0 0 0 10.833 5a.833.833 0 1 0 0 1.667Zm5.833 2.5a5.84 5.84 0 0 0-5.833-5.834.833.833 0 1 1 0-1.666c4.136 0 7.5 3.364 7.5 7.5a.833.833 0 1 1-1.666 0Z" fill="#231F20"/><mask id="a" style="mask-type:alpha" maskUnits="userSpaceOnUse" x="1" y="1" width="18" height="18"><path fill-rule="evenodd" clip-rule="evenodd" d="M14.5 16.667c-6.157 0-11.167-5.01-11.167-11.167a2.169 2.169 0 0 1 2.44-2.15l.884 3.852-.341.178-.108.056c-.718.375-1.285.672-.987 1.326.98 2.788 3.23 5.038 5.984 6.005.702.281.974-.24 1.351-.96l.005-.01a60.161 60.161 0 0 1 .238-.454l3.85.884a2.169 2.169 0 0 1-2.148 2.44Zm3.626-3.41a.833.833 0 0 0-.6-.539l-4.97-1.14a.834.834 0 0 0-.764.21c-.12.114-.122.117-.663 1.151A8.29 8.29 0 0 1 7.063 8.87c1.032-.54 1.035-.543 1.149-.662a.833.833 0 0 0 .21-.763l-1.14-4.97a.835.835 0 0 0-.54-.602 3.647 3.647 0 0 0-.604-.152A3.837 3.837 0 0 0 1.666 5.5c0 7.076 5.757 12.832 12.834 12.832a3.838 3.838 0 0 0 3.626-5.076Zm-7.293-6.59c1.378 0 2.5 1.121 2.5 2.5a.833.833 0 1 0 1.667 0A4.171 4.171 0 0 0 10.833 5a.833.833 0 1 0 0 1.667Zm5.833 2.5a5.84 5.84 0 0 0-5.833-5.834.833.833 0 1 1 0-1.666c4.136 0 7.5 3.364 7.5 7.5a.833.833 0 1 1-1.666 0Z" fill="#fff"/></mask><g mask="url(#a)"><path fill="#00094A" d="M0 0h20v20H0z"/></g></svg>